<svg width="20" height="13" viewBox="0 0 20 13" fill="none" xmlns="http://www.w3.org/2000/svg">
<path d="M8.07034 5.92189C8.07034 5.92189 9.96267 5.78323 9.96267 3.59293C9.96267 1.40248 8.41451 0.333496 6.45343 0.333496H0.000274658V12.5741H6.45343C6.45343 12.5741 10.3928 12.6969 10.3928 8.9612C10.3928 8.96124 10.5646 5.92189 8.07034 5.92189ZM5.98893 2.50912H6.45343C6.45343 2.50912 7.3306 2.50912 7.3306 3.78269C7.3306 5.05612 6.81473 5.24074 6.22959 5.24074H2.84362V2.50912H5.98893ZM6.27107 10.3985H2.84362V7.12737H6.45343C6.45343 7.12737 7.76081 7.11046 7.76081 8.8084C7.76081 10.2401 6.78432 10.3877 6.27107 10.3985ZM15.6467 3.44786C10.8776 3.44786 10.8819 8.15105 10.8819 8.15105C10.8819 8.15105 10.5547 12.8301 15.6467 12.8301C15.6467 12.8301 19.8901 13.0694 19.8901 9.57514H17.7078C17.7078 9.57514 17.7806 10.891 15.7195 10.891C15.7195 10.891 13.5369 11.0354 13.5369 8.76144H19.9629C19.9629 8.7614 20.666 3.44786 15.6467 3.44786ZM13.5129 7.12737C13.5129 7.12737 13.7794 5.2407 15.6952 5.2407C17.6107 5.2407 17.5867 7.12737 17.5867 7.12737H13.5129ZM18.095 2.56196H12.9786V1.05462H18.095V2.56196Z" fill="#4DC39E"/>
</svg>
