<svg id="Layer_1" data-name="Layer 1" xmlns="http://www.w3.org/2000/svg" viewBox="0 0 118.18 118.14"><defs><style>.cls-1{fill:#54bf9c;}</style></defs><path class="cls-1" d="M6.27,66.4V58.56c.17-1.41.32-2.81.53-4.21,2.37-15.62,9.64-28.49,22.06-38.26C42.48,5.38,58,1.61,75.11,4.2a53.47,53.47,0,0,1,17.79,6c2.92,1.59,5.68,3.48,8.59,5.28l-13.83,18a36.73,36.73,0,0,0-45.87,1.11A36.55,36.55,0,0,0,70.44,98.67C86.19,96.44,96.9,84.61,100,73.74H65.44V51.26h59c0,4.05.06,8,0,12a62,62,0,0,1-.53,7.34,57.72,57.72,0,0,1-14,30.66,58.17,58.17,0,0,1-35.57,19.58c-1.66.26-3.33.46-5,.68H61.43c-1.4-.17-2.81-.33-4.2-.53A59.31,59.31,0,0,1,7,71.4C6.69,69.74,6.49,68.07,6.27,66.4Z" transform="translate(-6.27 -3.41)"/></svg>