<svg id="Layer_1" data-name="Layer 1" xmlns="http://www.w3.org/2000/svg" viewBox="0 0 109.43 103.69"><defs><style>.cls-1{fill:#54bf9c;}</style></defs><path class="cls-1" d="M6.27,55.06V48.63c.14-1.15.26-2.31.44-3.45A47.61,47.61,0,0,1,24.79,13.81C36,5,48.72,1.94,62.72,4.06A43.94,43.94,0,0,1,77.3,9c2.39,1.31,4.66,2.85,7,4.33L73,28.06A30.11,30.11,0,0,0,35.39,29a30,30,0,0,0,23.5,52.55C71.8,79.69,80.58,70,83.1,61.07H54.78V42.64h48.37c0,3.32,0,6.6,0,9.86a48.49,48.49,0,0,1-.44,6,47.29,47.29,0,0,1-11.5,25.13A47.68,47.68,0,0,1,62,99.72c-1.37.21-2.74.37-4.1.56H51.49c-1.14-.14-2.3-.27-3.44-.44A48.6,48.6,0,0,1,6.83,59.16C6.61,57.8,6.45,56.43,6.27,55.06Z"/></svg>